# Rhino

g object_1
v -259.9754333496094 0 -16.0625114440918
v -259.9754333496094 0 -0.3750237822532654
v -259.9754333496094 0 15.31246471405029
v -164.3508758544922 0 -16.0625114440918
v -164.3508758544922 0 -0.3750237822532654
v -164.3508758544922 0 15.31246471405029
v -68.726318359375 0 -16.0625114440918
v -68.726318359375 0 -0.3750237822532654
v -68.726318359375 0 15.31246471405029
v -355.6000061035156 0 29.41245269775391
v -355.6000061035156 0 26.62228393554688
v -355.6000061035156 0 -30.16250038146973
v -355.4791564941406 0 -30.77000999450684
v -355.1350402832031 0 -31.28503227233887
v -354.6199951171875 0 -31.62915802001953
v -354.0125122070313 0 -31.75
v -10.88644409179688 0 -31.75
v 7.099687227075696e-16 0 -31.75
v 0.001215486554428935 0 26.99995231628418
v -2.220446049250313e-16 0 29.39995193481445
v -0.1217927485704422 0 30.01224517822266
v -0.4686291515827179 0 30.53132247924805
v -0.9877064824104309 0 30.87816047668457
v -1.600000023841858 0 30.99995231628418
v -354.0125122070313 0 30.99995231628418
v -354.6199951171875 0 30.87911033630371
v -355.1350402832031 0 30.53498458862305
v -355.4791564941406 0 30.01996231079102
v 1.401038527488709 0 25.36133003234863
v 0.8392910957336426 0 25.53772163391113
v 0.3804675340652466 0 25.90671157836914
v 0.08768384903669357 0 26.41754531860352
v 4.909165382385254 0 -24.92107772827148
v 13.40565204620361 0 -21.57425498962402
v 20.16936302185059 0 -15.43880748748779
v 24.32604217529297 0 -7.307784080505371
v 25.33840560913086 0 1.767821907997131
v 23.07560157775879 0 10.61492443084717
v 17.83011245727539 0 18.08997344970703
v 10.279953956604 0 23.22676467895508
v 2.664535259100376e-15 0 -30.79489326477051
v 0.4282370209693909 0 -28.79505348205566
v 1.46995484828949 0 -27.03506088256836
v 3.017093896865845 0 -25.69748687744141
v -355.6000061035156 0 29.41245269775391
v -355.6000061035156 609 29.41245269775391
v -355.4791564941406 0 30.01996231079102
v -355.4791564941406 609 30.01996231079102
v -355.1350402832031 0 30.53498458862305
v -355.1350402832031 609 30.53498458862305
v -354.6199951171875 0 30.87911033630371
v -354.6199951171875 609 30.87911033630371
v -354.0125122070313 0 30.99995231628418
v -354.0125122070313 609 30.99995231628418
v -1.600000023841858 0 30.99995231628418
v -1.600000023841858 609 30.99995231628418
v -0.9877064824104309 0 30.87816047668457
v -0.9877064824104309 609 30.87816047668457
v -0.4686291515827179 0 30.53132247924805
v -0.4686291515827179 609 30.53132247924805
v -0.1217927485704422 0 30.01224517822266
v -0.1217927485704422 609 30.01224517822266
v -2.220446049250313e-16 0 29.39995193481445
v -2.220446049250313e-16 609 29.39995193481445
v 0.001215486554428935 0 26.99995231628418
v 0.001215486554428935 609 26.99995231628418
v -355.6000061035156 304.5 29.41245269775391
v 0.001215486554428935 304.5 26.99995231628418
v -259.9754333496094 609 -16.0625114440918
v -259.9754333496094 609 -0.3750237822532654
v -259.9754333496094 609 15.31246471405029
v -164.3508758544922 609 -16.0625114440918
v -164.3508758544922 609 -0.3750237822532654
v -164.3508758544922 609 15.31246471405029
v -68.726318359375 609 -16.0625114440918
v -68.726318359375 609 -0.3750237822532654
v -68.726318359375 609 15.31246471405029
v -355.6000061035156 609 29.41245269775391
v -355.6000061035156 609 26.62228393554688
v -355.6000061035156 609 -30.16250038146973
v -355.4791564941406 609 -30.77000999450684
v -355.1350402832031 609 -31.28503227233887
v -354.6199951171875 609 -31.62915802001953
v -354.0125122070313 609 -31.75
v -10.88644409179688 609 -31.75
v 7.099687227075696e-16 609 -31.75
v 0.001215486554428935 609 26.99995231628418
v -2.220446049250313e-16 609 29.39995193481445
v -0.1217927485704422 609 30.01224517822266
v -0.4686291515827179 609 30.53132247924805
v -0.9877064824104309 609 30.87816047668457
v -1.600000023841858 609 30.99995231628418
v -354.0125122070313 609 30.99995231628418
v -354.6199951171875 609 30.87911033630371
v -355.1350402832031 609 30.53498458862305
v -355.4791564941406 609 30.01996231079102
v 1.401038527488709 609 25.36133003234863
v 0.8392910957336426 609 25.53772163391113
v 0.3804675340652466 609 25.90671157836914
v 0.08768384903669357 609 26.41754531860352
v 4.909165382385254 609 -24.92107772827148
v 13.40565204620361 609 -21.57425498962402
v 20.16936302185059 609 -15.43880748748779
v 24.32604217529297 609 -7.307784080505371
v 25.33840560913086 609 1.767821907997131
v 23.07560157775879 609 10.61492443084717
v 17.83011245727539 609 18.08997344970703
v 10.279953956604 609 23.22676467895508
v 2.664535259100376e-15 609 -30.79489326477051
v 0.4282370209693909 609 -28.79505348205566
v 1.46995484828949 609 -27.03506088256836
v 3.017093896865845 609 -25.69748687744141
v 0.001215486554428935 0 26.99995231628418
v 0.001215486554428935 609 26.99995231628418
v 0.08768384903669357 0 26.41754531860352
v 0.08768384903669357 609 26.41754531860352
v 0.3804675340652466 0 25.90671157836914
v 0.3804675340652466 609 25.90671157836914
v 0.8392910957336426 0 25.53772163391113
v 0.8392910957336426 609 25.53772163391113
v 1.401038527488709 0 25.36133003234863
v 1.401038527488709 609 25.36133003234863
v 0.001215486554428935 304.5 26.99995231628418
v 1.401038527488709 304.5 25.36133003234863
v 1.401038527488709 0 25.36133003234863
v 1.401038527488709 609 25.36133003234863
v 10.279953956604 0 23.22676467895508
v 10.279953956604 609 23.22676467895508
v 17.83011245727539 0 18.08997344970703
v 17.83011245727539 609 18.08997344970703
v 23.07560157775879 0 10.61492443084717
v 23.07560157775879 609 10.61492443084717
v 25.33840560913086 0 1.767821907997131
v 25.33840560913086 609 1.767821907997131
v 24.32604217529297 0 -7.307784080505371
v 24.32604217529297 609 -7.307784080505371
v 20.16936302185059 0 -15.43880748748779
v 20.16936302185059 609 -15.43880748748779
v 13.40565204620361 0 -21.57425498962402
v 13.40565204620361 609 -21.57425498962402
v 4.909165382385254 0 -24.92107772827148
v 4.909165382385254 609 -24.92107772827148
v 1.401038527488709 304.5 25.36133003234863
v 4.909165382385254 304.5 -24.92107772827148
v 4.909165382385254 0 -24.92107772827148
v 4.909165382385254 609 -24.92107772827148
v 3.017093896865845 0 -25.69748687744141
v 3.017093896865845 609 -25.69748687744141
v 1.46995484828949 0 -27.03506088256836
v 1.46995484828949 609 -27.03506088256836
v 0.4282370209693909 0 -28.79505348205566
v 0.4282370209693909 609 -28.79505348205566
v 2.664535259100376e-15 0 -30.79489326477051
v 2.664535259100376e-15 609 -30.79489326477051
v 4.909165382385254 304.5 -24.92107772827148
v 2.664535259100376e-15 0 -30.79489326477051
v 2.664535259100376e-15 609 -30.79489326477051
v 7.099687227075696e-16 0 -31.75
v 7.099687227075696e-16 609 -31.75
v 7.099687227075696e-16 0 -31.75
v 7.099687227075696e-16 609 -31.75
v -10.88644409179688 0 -31.75
v -10.88644409179688 609 -31.75
v -354.0125122070313 0 -31.75
v -354.0125122070313 609 -31.75
v -354.6199951171875 0 -31.62915802001953
v -354.6199951171875 609 -31.62915802001953
v -355.1350402832031 0 -31.28503227233887
v -355.1350402832031 609 -31.28503227233887
v -355.4791564941406 0 -30.77000999450684
v -355.4791564941406 609 -30.77000999450684
v -355.6000061035156 0 -30.16250038146973
v -355.6000061035156 609 -30.16250038146973
v -355.6000061035156 0 26.62228393554688
v -355.6000061035156 609 26.62228393554688
v -355.6000061035156 0 29.41245269775391
v -355.6000061035156 609 29.41245269775391
v -355.6000061035156 304.5 29.41245269775391
vt 0.1124871820211411 0.01808763854205608
vt 0.1124871820211411 0.03617527708411217
vt 0.1124871820211411 0.0542629174888134
vt 0.2249743640422821 0.01808763854205608
vt 0.2249743640422821 0.03617527708411217
vt 0.2249743640422821 0.0542629174888134
vt 0.337461531162262 0.01808763854205608
vt 0.337461531162262 0.03617527708411217
vt 0.337461531162262 0.0542629174888134
vt 0 0.07052017003297806
vt 0 0.06730311363935471
vt 0 0.001830384018830955
vt 0.0001421506167389453 0.001129926298744977
vt 0.000546961382497102 0.0005361070507206023
vt 0.001152803422883153 0.0001393296843161807
vt 0.001867442857474089 0
vt 0.4055010080337524 0
vt 0.4183071851730347 0
vt 0.4183086156845093 0.06773856282234192
vt 0.4183071851730347 0.07050576061010361
vt 0.418163925409317 0.07121173292398453
vt 0.4177559316158295 0.07181022316217423
vt 0.417145311832428 0.07221013307571411
vt 0.4164250195026398 0.07235055416822434
vt 0.001867442857474089 0.07235055416822434
vt 0.001152803422883153 0.07221122831106186
vt 0.000546961382497102 0.07181444764137268
vt 0.0001421506167389453 0.07122062891721726
vt 0.419955313205719 0.06584923714399338
vt 0.4192944765090942 0.06605261564254761
vt 0.4187547564506531 0.06647806614637375
vt 0.4184103310108185 0.06706705689430237
vt 0.4240820407867432 0.007873732596635819
vt 0.4340768158435822 0.01173261180520058
vt 0.4420332610607147 0.01880676858127117
vt 0.4469229280948639 0.02818181924521923
vt 0.4481137990951538 0.03864597529172897
vt 0.4454520046710968 0.04884666576981545
vt 0.4392814934253693 0.05746537819504738
vt 0.4303999245166779 0.06338808685541153
vt 0.4183071851730347 0.001101236208342016
vt 0.4188109338283539 0.003407047130167484
vt 0.4200363457202911 0.005436313338577747
vt 0.4218563139438629 0.006978534627705813
vt 0.4894347190856934 0.1597516536712647
vt 0.4894347190856934 0.8746790289878845
vt 0.4901654720306397 0.1597516536712647
vt 0.4901654720306397 0.8746790289878845
vt 0.4908962249755859 0.1597516536712647
vt 0.4908962249755859 0.8746790289878845
vt 0.4916269481182098 0.1597516536712647
vt 0.4916269481182098 0.8746790289878845
vt 0.4923577010631561 0.1597516536712647
vt 0.4923577010631561 0.8746790289878845
vt 0.9054434299468994 0.1597516536712647
vt 0.9054434299468994 0.8746790289878845
vt 0.9061799049377441 0.1597516536712647
vt 0.9061799049377441 0.8746790289878845
vt 0.9069164395332336 0.1597516536712647
vt 0.9069164395332336 0.8746790289878845
vt 0.9076529145240784 0.1597516536712647
vt 0.9076529145240784 0.8746790289878845
vt 0.9083893895149231 0.1597516536712647
vt 0.9083893895149231 0.8746790289878845
vt 0.911202609539032 0.1597516536712647
vt 0.911202609539032 0.8746790289878845
vt 0.4894347190856934 0.517215371131897
vt 0.911202609539032 0.517215371131897
vt 0.98044753074646 0.1124871820211411
vt 0.9623599052429199 0.1124871820211411
vt 0.9442722201347351 0.1124871820211411
vt 0.98044753074646 0.2249743640422821
vt 0.9623599052429199 0.2249743640422821
vt 0.9442722201347351 0.2249743640422821
vt 0.98044753074646 0.337461531162262
vt 0.9623599052429199 0.337461531162262
vt 0.9442722201347351 0.337461531162262
vt 0.9280149936676025 0
vt 0.9312320351600647 0
vt 0.9967047572135925 0
vt 0.9974052309989929 0.0001421506167389453
vt 0.9979990720748901 0.000546961382497102
vt 0.9983958005905151 0.001152803422883153
vt 0.99853515625 0.001867442857474089
vt 0.99853515625 0.4055010080337524
vt 0.99853515625 0.4183071851730347
vt 0.9307965636253357 0.4183086156845093
vt 0.9280294179916382 0.4183071851730347
vt 0.9273234009742737 0.418163925409317
vt 0.926724910736084 0.4177559316158295
vt 0.9263250231742859 0.417145311832428
vt 0.9261845946311951 0.4164250195026398
vt 0.9261845946311951 0.001867442857474089
vt 0.9263239502906799 0.001152803422883153
vt 0.9267206788063049 0.000546961382497102
vt 0.9273145198822022 0.0001421506167389453
vt 0.932685911655426 0.419955313205719
vt 0.9324825406074524 0.4192944765090942
vt 0.9320570826530457 0.4187547564506531
vt 0.93146812915802 0.4184103310108185
vt 0.9906614422798157 0.4240820407867432
vt 0.9868025183677673 0.4340768158435822
vt 0.9797284007072449 0.4420332610607147
vt 0.970353364944458 0.4469229280948639
vt 0.9598891735076904 0.4481137990951538
vt 0.9496884942054749 0.4454520046710968
vt 0.9410697817802429 0.4392814934253693
vt 0.9351470470428467 0.4303999245166779
vt 0.9974339008331299 0.4183071851730347
vt 0.9951280951499939 0.4188109338283539
vt 0.9930988550186157 0.4200363457202911
vt 0.9915566444396973 0.4218563139438629
vt 0.9137910008430481 0
vt 0.9137910008430481 0.7163922190666199
vt 0.9144835472106934 0
vt 0.9144835472106934 0.7163922190666199
vt 0.9151761531829834 0
vt 0.9151761531829834 0.7163922190666199
vt 0.9158687591552734 0
vt 0.9158687591552734 0.7163922190666199
vt 0.9165613651275635 0
vt 0.9165613651275635 0.7163922190666199
vt 0.9137910008430481 0.3581961095333099
vt 0.9165613651275635 0.3581961095333099
vt 0.7163922190666199 0.07381539791822434
vt 0 0.07381539791822434
vt 0.7163922190666199 0.0843743234872818
vt 0 0.0843743234872818
vt 0.7163922190666199 0.09493324905633926
vt 0 0.09493324905633926
vt 0.7163922190666199 0.1054921746253967
vt 0 0.1054921746253967
vt 0.7163922190666199 0.1160511001944542
vt 0 0.1160511001944542
vt 0.7163922190666199 0.1266100257635117
vt 0 0.1266100257635117
vt 0.7163922190666199 0.1371689587831497
vt 0 0.1371689587831497
vt 0.7163922190666199 0.1477278769016266
vt 0 0.1477278769016266
vt 0.7163922190666199 0.1582868099212647
vt 0 0.1582868099212647
vt 0.3581961095333099 0.07381539791822434
vt 0.3581961095333099 0.1582868099212647
vt 0.9165613651275635 0
vt 0.9165613651275635 0.7163922190666199
vt 0.9186009764671326 0
vt 0.9186009764671326 0.7163922190666199
vt 0.9206405878067017 0
vt 0.9206405878067017 0.7163922190666199
vt 0.922680139541626 0
vt 0.922680139541626 0.7163922190666199
vt 0.9247197508811951 0
vt 0.9247197508811951 0.7163922190666199
vt 0.9165613651275635 0.3581961095333099
vt 0.912667453289032 0
vt 0.912667453289032 0.7163922190666199
vt 0.9137910008430481 0
vt 0.9137910008430481 0.7163922190666199
vt 0 0.1597516536712647
vt 0 0.8746790289878845
vt 0.01276735961437225 0.1597516536712647
vt 0.01276735961437225 0.8746790289878845
vt 0.4151773452758789 0.1597516536712647
vt 0.4151773452758789 0.8746790289878845
vt 0.4159084558486939 0.1597516536712647
vt 0.4159084558486939 0.8746790289878845
vt 0.4166395664215088 0.1597516536712647
vt 0.4166395664215088 0.8746790289878845
vt 0.4173706769943237 0.1597516536712647
vt 0.4173706769943237 0.8746790289878845
vt 0.4181018173694611 0.1597516536712647
vt 0.4181018173694611 0.8746790289878845
vt 0.4846976399421692 0.1597516536712647
vt 0.4846976399421692 0.8746790289878845
vt 0.4879698753356934 0.1597516536712647
vt 0.4879698753356934 0.8746790289878845
vt 0.4879698753356934 0.517215371131897
vn 0 -1 0
vn 0 -1 0
vn 0 -1 0
vn 0 -1 0
vn 0 -1 0
vn 0 -1 0
vn 0 -1 0
vn 0 -1 0
vn 0 -1 0
vn 0 -1 0
vn 0 -1 0
vn 0 -1 0
vn 0 -1 0
vn 0 -1 0
vn 0 -1 0
vn 0 -1 0
vn 0 -1 0
vn 0 -1 0
vn 0 -1 0
vn 0 -1 0
vn 0 -1 0
vn 0 -1 0
vn 0 -1 0
vn 0 -1 0
vn 0 -1 0
vn 0 -1 0
vn 0 -1 0
vn 0 -1 0
vn 0 -1 0
vn 0 -1 0
vn 0 -1 0
vn 0 -1 0
vn 0 -1 0
vn 0 -1 0
vn 0 -1 0
vn 0 -1 0
vn 0 -1 0
vn 0 -1 0
vn 0 -1 0
vn 0 -1 0
vn 0 -1 0
vn 0 -1 0
vn 0 -1 0
vn 0 -1 0
vn -1 0 2.454383504974563e-14
vn -1 0 2.454383504974563e-14
vn -0.9238795042037964 0 0.3826834261417389
vn -0.9238795042037964 0 0.3826834261417389
vn -0.7071067690849304 0 0.7071067690849304
vn -0.7071067690849304 0 0.7071067690849304
vn -0.3826834261417389 0 0.9238795042037964
vn -0.3826834261417389 0 0.9238795042037964
vn 0 0 1
vn 0 0 1
vn 0 0 1
vn 0 0 1
vn 0.3826834261417389 0 0.9238795042037964
vn 0.3826834261417389 0 0.9238795042037964
vn 0.7071067690849304 0 0.7071067690849304
vn 0.7071067690849304 0 0.7071067690849304
vn 0.9238795042037964 0 0.3826834261417389
vn 0.9238795042037964 0 0.3826834261417389
vn 0.9999998807907105 0 0.000506452692206949
vn 0.9999998807907105 0 0.000506452692206949
vn 0.9999998807907105 0 0.000506452692206949
vn 0.9999998807907105 0 0.000506452692206949
vn -1 0 2.454383504974563e-14
vn 0.9999998807907105 0 0.000506452692206949
vn -5.551115123125783e-17 1 0
vn 0 1 0
vn 0 1 0
vn -5.551115123125783e-17 1 0
vn 0 1 0
vn 0 1 0
vn -5.551115123125783e-17 1 0
vn 0 1 0
vn 0 1 0
vn 0 1 0
vn 0 1 0
vn 0 1 0
vn 0 1 0
vn 0 1 0
vn 0 1 0
vn 0 1 0
vn 0 1 0
vn 0 1 0
vn 0 1 0
vn 0 1 0
vn 0 1 0
vn 0 1 0
vn 0 1 0
vn 0 1 0
vn 0 1 0
vn 0 1 0
vn 0 1 0
vn 0 1 0
vn 0 1 0
vn 0 1 0
vn 0 1 0
vn 0 1 0
vn 0 1 0
vn 0 1 0
vn 0 1 0
vn 0 1 0
vn 0 1 0
vn 0 1 0
vn 0 1 0
vn 0 1 0
vn 0 1 0
vn 0 1 0
vn 0 1 0
vn 0 1 0
vn 0.9992343187332153 0 -0.03912461549043655
vn 0.9992343187332153 0 -0.03912461549043655
vn 0.944766104221344 0 0.3277454078197479
vn 0.944766104221344 0 0.3277454078197479
vn 0.7603354454040527 0 0.6495306491851807
vn 0.7603354454040527 0 0.6495306491851807
vn 0.4713127017021179 0 0.8819661736488342
vn 0.4713127017021179 0 0.8819661736488342
vn 0.1174560263752937 0 0.9930781126022339
vn 0.1174560263752937 0 0.9930781126022339
vn 0.9992343187332153 0 -0.03912461549043655
vn 0.1174560263752937 0 0.9930781126022339
vn 0.05515899881720543 0 0.998477578163147
vn 0.05515899881720543 0 0.998477578163147
vn 0.4047225713729858 0 0.9144394993782044
vn 0.4047225713729858 0 0.9144394993782044
vn 0.7019729018211365 0 0.7122036814689636
vn 0.7019729018211365 0 0.7122036814689636
vn 0.9084882140159607 0 0.4179104268550873
vn 0.9084882140159607 0 0.4179104268550873
vn 0.997575044631958 0 0.06959928572177887
vn 0.997575044631958 0 0.06959928572177887
vn 0.9577181935310364 0 -0.287708044052124
vn 0.9577181935310364 0 -0.287708044052124
vn 0.7940694093704224 0 -0.6078270673751831
vn 0.7940694093704224 0 -0.6078270673751831
vn 0.52778160572052 0 -0.8493801355361939
vn 0.52778160572052 0 -0.8493801355361939
vn 0.1932742297649384 0 -0.9811447858810425
vn 0.1932742297649384 0 -0.9811447858810425
vn 0.05515899881720543 0 0.998477578163147
vn 0.1932742297649384 0 -0.9811447858810425
vn 0.2256926000118256 0 -0.974198579788208
vn 0.2256926000118256 0 -0.974198579788208
vn 0.5236566662788391 0 -0.8519294261932373
vn 0.5236566662788391 0 -0.8519294261932373
vn 0.767300546169281 0 -0.641287624835968
vn 0.767300546169281 0 -0.641287624835968
vn 0.9313506484031677 0 -0.3641236126422882
vn 0.9313506484031677 0 -0.3641236126422882
vn 0.9987895488739014 0 -0.04918821901082993
vn 0.9987895488739014 0 -0.04918821901082993
vn 0.2256926000118256 0 -0.974198579788208
vn 1 0 -2.046437318038784e-15
vn 1 0 -2.046437318038784e-15
vn 1 0 -2.046437318038784e-15
vn 1 0 -2.046437318038784e-15
vn 0 0 -1
vn 0 0 -1
vn 0 0 -1
vn 0 0 -1
vn 0 0 -1
vn 0 0 -1
vn -0.3826834261417389 0 -0.9238795042037964
vn -0.3826834261417389 0 -0.9238795042037964
vn -0.7071067690849304 0 -0.7071067690849304
vn -0.7071067690849304 0 -0.7071067690849304
vn -0.9238795042037964 0 -0.3826834261417389
vn -0.9238795042037964 0 -0.3826834261417389
vn -1 0 -2.002065073580393e-15
vn -1 0 -2.002065073580393e-15
vn -1 0 0
vn -1 0 0
vn -1 0 0
vn -1 0 0
vn -1 0 0
f 5/5/5 2/2/2 1/1/1 4/4/4
f 6/6/6 3/3/3 2/2/2 5/5/5
f 8/8/8 5/5/5 4/4/4 7/7/7
f 9/9/9 6/6/6 5/5/5 8/8/8
f 14/14/14 15/15/15 16/16/16
f 16/16/16 13/13/13 14/14/14
f 12/12/12 13/13/13 16/16/16
f 12/12/12 16/16/16 1/1/1
f 1/1/1 16/16/16 4/4/4
f 17/17/17 4/4/4 16/16/16
f 17/17/17 7/7/7 4/4/4
f 8/8/8 7/7/7 36/36/36
f 12/12/12 1/1/1 2/2/2
f 11/11/11 12/12/12 2/2/2
f 10/10/10 25/25/25 28/28/28
f 26/26/26 27/27/27 25/25/25
f 27/27/27 28/28/28 25/25/25
f 3/3/3 10/10/10 11/11/11
f 25/25/25 3/3/3 6/6/6
f 25/25/25 6/6/6 24/24/24
f 9/9/9 24/24/24 6/6/6
f 9/9/9 19/19/19 24/24/24
f 8/8/8 38/38/38 9/9/9
f 10/10/10 3/3/3 25/25/25
f 3/3/3 11/11/11 2/2/2
f 17/17/17 43/43/43 7/7/7
f 41/41/41 42/42/42 17/17/17
f 44/44/44 33/33/33 7/7/7
f 7/7/7 43/43/43 44/44/44
f 17/17/17 42/42/42 43/43/43
f 7/7/7 34/34/34 35/35/35
f 35/35/35 36/36/36 7/7/7
f 37/37/37 38/38/38 8/8/8
f 8/8/8 36/36/36 37/37/37
f 34/34/34 7/7/7 33/33/33
f 38/38/38 39/39/39 9/9/9
f 20/20/20 21/21/21 24/24/24
f 23/23/23 24/24/24 22/22/22
f 22/22/22 24/24/24 21/21/21
f 20/20/20 24/24/24 19/19/19
f 29/29/29 9/9/9 40/40/40
f 9/9/9 29/29/29 30/30/30
f 31/31/31 32/32/32 9/9/9
f 30/30/30 31/31/31 9/9/9
f 9/9/9 39/39/39 40/40/40
f 9/9/9 32/32/32 19/19/19
f 18/18/18 41/41/41 17/17/17
f 67/67/67 45/45/45 47/47/47
f 67/67/67 47/47/47 49/49/49
f 67/67/67 51/51/51 53/53/53
f 54/54/54 53/53/53 55/55/55 56/56/56
f 67/67/67 49/49/49 51/51/51
f 46/46/46 67/67/67 48/48/48
f 50/50/50 48/48/48 67/67/67
f 67/67/67 52/52/52 50/50/50
f 67/67/67 54/54/54 52/52/52
f 54/54/54 67/67/67 53/53/53
f 68/68/68 57/57/57 59/59/59
f 68/68/68 59/59/59 61/61/61
f 68/68/68 63/63/63 65/65/65
f 61/61/61 63/63/63 68/68/68
f 55/55/55 68/68/68 56/56/56
f 68/68/68 58/58/58 56/56/56
f 68/68/68 60/60/60 58/58/58
f 68/68/68 64/64/64 62/62/62
f 68/68/68 66/66/66 64/64/64
f 62/62/62 60/60/60 68/68/68
f 57/57/57 68/68/68 55/55/55
f 73/73/73 72/72/72 69/69/69 70/70/70
f 74/74/74 73/73/73 70/70/70 71/71/71
f 76/76/76 75/75/75 72/72/72 73/73/73
f 77/77/77 76/76/76 73/73/73 74/74/74
f 82/82/82 84/84/84 83/83/83
f 84/84/84 82/82/82 81/81/81
f 80/80/80 84/84/84 81/81/81
f 80/80/80 69/69/69 84/84/84
f 69/69/69 72/72/72 84/84/84
f 85/85/85 84/84/84 72/72/72
f 85/85/85 72/72/72 75/75/75
f 76/76/76 104/104/104 75/75/75
f 80/80/80 70/70/70 69/69/69
f 79/79/79 70/70/70 80/80/80
f 78/78/78 96/96/96 93/93/93
f 94/94/94 93/93/93 95/95/95
f 95/95/95 93/93/93 96/96/96
f 71/71/71 79/79/79 78/78/78
f 93/93/93 74/74/74 71/71/71
f 93/93/93 92/92/92 74/74/74
f 77/77/77 74/74/74 92/92/92
f 77/77/77 92/92/92 87/87/87
f 76/76/76 77/77/77 106/106/106
f 78/78/78 93/93/93 71/71/71
f 71/71/71 70/70/70 79/79/79
f 85/85/85 75/75/75 111/111/111
f 109/109/109 85/85/85 110/110/110
f 112/112/112 75/75/75 101/101/101
f 75/75/75 112/112/112 111/111/111
f 85/85/85 111/111/111 110/110/110
f 75/75/75 103/103/103 102/102/102
f 103/103/103 75/75/75 104/104/104
f 105/105/105 76/76/76 106/106/106
f 76/76/76 105/105/105 104/104/104
f 102/102/102 101/101/101 75/75/75
f 106/106/106 77/77/77 107/107/107
f 88/88/88 92/92/92 89/89/89
f 91/91/91 90/90/90 92/92/92
f 90/90/90 89/89/89 92/92/92
f 88/88/88 87/87/87 92/92/92
f 97/97/97 108/108/108 77/77/77
f 77/77/77 98/98/98 97/97/97
f 99/99/99 77/77/77 100/100/100
f 98/98/98 77/77/77 99/99/99
f 77/77/77 108/108/108 107/107/107
f 77/77/77 87/87/87 100/100/100
f 86/86/86 85/85/85 109/109/109
f 123/123/123 113/113/113 115/115/115
f 116/116/116 115/115/115 117/117/117 118/118/118
f 114/114/114 123/123/123 116/116/116
f 115/115/115 116/116/116 123/123/123
f 124/124/124 119/119/119 121/121/121
f 120/120/120 119/119/119 124/124/124
f 119/119/119 120/120/120 118/118/118 117/117/117
f 124/124/124 122/122/122 120/120/120
f 143/143/143 125/125/125 127/127/127
f 131/131/131 132/132/132 130/130/130 129/129/129
f 132/132/132 131/131/131 133/133/133 134/134/134
f 129/129/129 130/130/130 128/128/128 127/127/127
f 128/128/128 126/126/126 143/143/143
f 127/127/127 128/128/128 143/143/143
f 137/137/137 138/138/138 136/136/136 135/135/135
f 144/144/144 139/139/139 141/141/141
f 139/139/139 140/140/140 138/138/138 137/137/137
f 139/139/139 144/144/144 140/140/140
f 135/135/135 136/136/136 134/134/134 133/133/133
f 144/144/144 142/142/142 140/140/140
f 155/155/155 145/145/145 147/147/147
f 146/146/146 155/155/155 148/148/148
f 147/147/147 148/148/148 155/155/155
f 148/148/148 147/147/147 149/149/149 150/150/150
f 151/151/151 152/152/152 150/150/150 149/149/149
f 153/153/153 154/154/154 152/152/152 151/151/151
f 157/157/157 156/156/156 158/158/158 159/159/159
f 162/162/162 163/163/163 161/161/161 160/160/160
f 166/166/166 167/167/167 165/165/165 164/164/164
f 164/164/164 165/165/165 163/163/163 162/162/162
f 168/168/168 169/169/169 167/167/167 166/166/166
f 172/172/172 173/173/173 171/171/171 170/170/170
f 178/178/178 174/174/174 176/176/176
f 172/172/172 174/174/174 178/178/178
f 178/178/178 173/173/173 172/172/172
f 170/170/170 171/171/171 169/169/169 168/168/168
f 178/178/178 175/175/175 173/173/173
f 178/178/178 177/177/177 175/175/175
